<svg xmlns="http://www.w3.org/2000/svg" xmlns:xlink="http://www.w3.org/1999/xlink" width="212.396" height="171.324" viewBox="0 0 212.396 171.324"><defs><style>.a,.j{fill:#6c63ff;}.a,.c,.d,.g,.q{opacity:0.1;}.b{fill:#a8a8a8;}.c,.k{fill:#fff;}.e{fill:#464353;}.f{fill:url(#a);}.h{opacity:0.06;}.i{fill:#fbbebe;}.l{fill:#fed253;}.m{fill:url(#b);}.n{fill:#d6d8e1;}.o{fill:#f86d70;}.p{fill:#444176;}.q{fill:none;stroke:#000;stroke-miterlimit:10;}.r{opacity:0.05;}.s{opacity:0.2;}</style><linearGradient id="a" y1="0.5" x2="1" y2="0.5" gradientUnits="objectBoundingBox"><stop offset="0" stop-color="gray" stop-opacity="0.251"/><stop offset="0.54" stop-color="gray" stop-opacity="0.122"/><stop offset="1" stop-color="gray" stop-opacity="0.102"/></linearGradient><linearGradient id="b" x1="12.106" y1="0.5" x2="13.106" y2="0.5" xlink:href="#a"/></defs><ellipse class="a" cx="95.983" cy="85.662" rx="95.983" ry="85.662" transform="translate(13.274 0)"/><ellipse class="a" cx="35.391" cy="5.486" rx="35.391" ry="5.486" transform="translate(0 123.995)"/><ellipse class="a" cx="13.765" cy="2.844" rx="13.765" ry="2.844" transform="translate(38.636 155.413)"/><ellipse class="a" cx="13.765" cy="2.844" rx="13.765" ry="2.844" transform="translate(132.695 144.472)"/><ellipse class="a" cx="22.385" cy="3.792" rx="22.385" ry="3.792" transform="translate(77.366 140.189)"/><ellipse class="a" cx="46.689" cy="7.313" rx="46.689" ry="7.313" transform="translate(119.018 117.896)"/><path class="b" d="M125.362,499.34a12.992,12.992,0,0,0,.677,13.043,3.227,3.227,0,0,0,1.093,1.179c1.451.57,4.356,1.971,4.356,1.971l7-2.749s1.136-6.008,2.21-11.167h0a62.374,62.374,0,0,1,1.73-7.187c.724-1.348,0-16.021,0-16.021s-7-.469-8.92,4.924l-.842,1.646Z" transform="translate(-115.686 -386.894)"/><path class="c" d="M166.79,500.969c4.253,4.874,6.047.658,6.047.658h0a62.369,62.369,0,0,1,1.73-7.187c.724-1.348,0-16.021,0-16.021s-7-.469-8.92,4.924l-.842,1.646C164.267,489.3,163.734,497.461,166.79,500.969Z" transform="translate(-147.825 -386.902)"/><path class="b" d="M180.59,450.33l24.691-2.852,4.405-28.987-3.331-7.529a30.506,30.506,0,0,0-5.761-8.691,17.671,17.671,0,0,0-5.835-4.321,8.734,8.734,0,0,0-.891-.3,2.307,2.307,0,0,0-2.058.364c-3.045,2.158-4.134,11.335-4.486,15.753a49.3,49.3,0,0,1-.735,5.409Z" transform="translate(-160.691 -322.677)"/><path class="c" d="M240.29,418.17l-5.144,12.654c2.7-1.971,6.689-12.706,6.689-12.706l3.578,12.239-2.852-12.9a40.343,40.343,0,0,0,.362-8.465c-.226-3.239-3.265-8.436-4.916-11.053a8.751,8.751,0,0,0-.891-.3,2.307,2.307,0,0,0-2.058.364c1.3,2.6,4.537,9.111,5.525,11.045C241.838,411.481,240.29,418.17,240.29,418.17Z" transform="translate(-203.953 -322.669)"/><path class="b" d="M280.89,528.176h13.4a4.064,4.064,0,0,0,4.06-4.269c-.3-5.745-1.047-15.988-2.833-22.49-.965-3.508-2.086-5.35-3.115-6.257a3.039,3.039,0,0,0-1.772-.833,2.325,2.325,0,0,0-1.44.35c-2.488,2.385-5.393,14.934-5.393,14.934Z" transform="translate(-240.353 -399.537)"/><path class="c" d="M301.948,584.622a6.577,6.577,0,0,1,0,5.01l-2.986,1.475s-8.025-3.4-7.049-10.372c0,0,.263-1.44,3.027-1.329a7.833,7.833,0,0,1,7.008,5.216Z" transform="translate(-249.042 -467.113)"/><path class="c" d="M310.894,498.755c-.093-2.444,1.235-3.292,2.331-3.562a3.039,3.039,0,0,0-1.772-.833,4.7,4.7,0,0,0-1.545,2.469l-2.8,13.64S311.05,502.852,310.894,498.755Z" transform="translate(-261.178 -399.57)"/><path class="b" d="M181.922,568.14l6.634,9.074,1.15,7.49-4.263,2.1-6.146,1.358a5.909,5.909,0,0,1-1.8.117l-16.772-1.475,2.282-5.29,7.881-11.064Z" transform="translate(-144.909 -458.169)"/><path class="c" d="M188.13,552.986s4.527.311,2.827,8.089-19.187,8.4-19.187,8.4a45.946,45.946,0,0,1,9.432-11.3c.642-.529,1.261-1.08,1.852-1.669C184.369,555.19,186.883,552.879,188.13,552.986Z" transform="translate(-153.686 -446.131)"/><path class="d" d="M271.07,581.5s6.134,5.582,5.556,14.173" transform="translate(-232.554 -468.78)"/><path class="d" d="M293.588,496.06a42.855,42.855,0,0,0-7.158,21.73" transform="translate(-244.753 -400.921)"/><path class="d" d="M195.863,478.43s3.115,14.146-4.663,24.808" transform="translate(-169.118 -386.918)"/><path class="e" d="M482.358,598.225h33.568a1.881,1.881,0,0,0,1.646-2.772L500.8,564.284a1.879,1.879,0,0,0-3.309,0L480.7,595.453a1.881,1.881,0,0,0,1.654,2.772Zm18.92-5.7h-4.272v-4.27h4.272Zm0-7.117h-4.272v-8.541h4.272Z" transform="translate(-398.875 -454.322)"/><path class="d" d="M482.358,598.225h33.568a1.881,1.881,0,0,0,1.646-2.772L500.8,564.284a1.879,1.879,0,0,0-3.309,0L480.7,595.453a1.881,1.881,0,0,0,1.654,2.772Zm18.92-5.7h-4.272v-4.27h4.272Zm0-7.117h-4.272v-8.541h4.272Z" transform="translate(-398.875 -454.322)"/><path class="e" d="M482.358,603.225h33.568a1.881,1.881,0,0,0,1.646-2.772L500.8,569.284a1.879,1.879,0,0,0-3.309,0L480.7,600.453a1.881,1.881,0,0,0,1.654,2.772Zm18.92-5.7h-4.272V593.26h4.272Zm0-7.117h-4.272v-8.541h4.272Z" transform="translate(-398.875 -458.293)"/><path class="f" d="M151.349,317.818a2.3,2.3,0,0,0-.475-.23c-.551-.206-1.14-.259-1.691-.457a2.422,2.422,0,0,1-.85-.5c-.041-.041-.08-.082-.117-.126.206-.13.393-.259.6-.381a7.07,7.07,0,0,0-2.481-2.469c.331-.488,1.078-.449,1.514-.842a1.44,1.44,0,0,0,.412-.809,5.589,5.589,0,0,0-.241-2.442,30.107,30.107,0,0,0-1.42-4.6,18.117,18.117,0,0,1-.77-1.864c-.533-1.774-.16-3.7-.564-5.516a3.869,3.869,0,0,1-.193-1.759c.224-.893,1.222-1.422,1.44-2.315a92.582,92.582,0,0,0,1.381-9.722,12.511,12.511,0,0,0,.167-1.866c0-.656-.117-1.307-.165-1.961a35.67,35.67,0,0,1,.4-5.508,5.761,5.761,0,0,1,.747,1.842,7.435,7.435,0,0,1,.043,1.827,8.583,8.583,0,0,1-.13,1.216c-.1.477-.278.934-.4,1.411a4.364,4.364,0,0,0,.2,2.831c.28.617.9,1.189,1.535,1a1.658,1.658,0,0,0,.907-.986,6.014,6.014,0,0,0,.545-4.216,12.663,12.663,0,0,1-.93-2.73,7.058,7.058,0,0,1,.091-1.154c.257-2.235-.3-4.479-.422-6.726a13.121,13.121,0,0,0-.113-1.965c-.016-.076-.035-.152-.058-.224a.482.482,0,0,1,.148.068,1.342,1.342,0,0,0-.029-1.15,2.924,2.924,0,0,1-.193-.362c-.078-.206-.064-.444-.16-.642a2.741,2.741,0,0,0-.206-.3,2.4,2.4,0,0,1-.286-1.35q-.047-3.654-.206-7.3a11.955,11.955,0,0,0-.558-3.656,5.481,5.481,0,0,0-1.934-2.566,4.5,4.5,0,0,0-.434-.272,1.507,1.507,0,0,0,.123-.556,1.33,1.33,0,0,0,0-.181l-.012-.1h0a4.342,4.342,0,0,0-.412-1.235,3.469,3.469,0,0,1-.393-1.35,2.1,2.1,0,0,1,.014-.255h0c.07-.593.379-1.148.488-1.741a2.985,2.985,0,0,0,.045-.558v-.2a5.609,5.609,0,0,0-.66-2.078c-.1-.206-.206-.412-.321-.617-.053-.385-.113-.77-.173-1.152-.033-.222-.068-.444-.115-.665q-.035-.165-.08-.321c.319-.3.134-.741-.07-1.148a9.511,9.511,0,0,1-.477-2.549,7.7,7.7,0,0,0-.6-1.712,3.815,3.815,0,0,0-.656-1.078,4.024,4.024,0,0,0-.85-.617,2.706,2.706,0,0,0-.844-.381c-.187-.037-.379-.035-.564-.078a1.786,1.786,0,0,1-.346-.126,2.352,2.352,0,0,0-.739-.27,1.646,1.646,0,0,0-.712.136,2.619,2.619,0,0,1-.765.206h-.29a.644.644,0,0,0-.393.095,1.486,1.486,0,0,0-.169.173,2.278,2.278,0,0,1-.5.339,4.887,4.887,0,0,0-2.4,4.177,2.07,2.07,0,0,1-.06.677c-.06.173-.177.323-.226.5a1.4,1.4,0,0,0-.023.469c.016.241.041.479.068.72h0a1.515,1.515,0,0,0-.3.665h0a.9.9,0,0,0-.019.128v.016h0a3.726,3.726,0,0,0,.313,1.235,4.387,4.387,0,0,1-.062,2.422,9.537,9.537,0,0,0-.412,1.646h0v.037a1.99,1.99,0,0,0,.095.823c.068.187.169.362.23.551a2.272,2.272,0,0,1-.518,1.963h0c-.066.093-.134.181-.206.267h.01l-.01.01.428.3c-.126.066-.251.138-.379.206a3.893,3.893,0,0,0-1.4.516,5.67,5.67,0,0,0-1.132.753,4.8,4.8,0,0,0-.893,1.235,15.517,15.517,0,0,0-.757,1.6,5,5,0,0,0-.387,1.385c-.177.377-.323.782-.486,1.146-.082.187-.163.374-.243.562L121.136,237.7l-1.1.457.086.206-.228.1.311.757c-.045.031-.091.062-.134.095l-.058.045-.115.091-.058.047-.117.1-.043.037-.146.134h0c-.156.142-.307.292-.453.442l-.377.389-.072.076-.126.128-.07.072-.179.179-.012.012-.111.107-.07.066c-.029.029-.06.056-.091.082l-.086.08-.14.119-.041.037-.191.152a5.364,5.364,0,0,1-.823.529c-1.126.582-2.317,1.07-3.416,1.693a9.837,9.837,0,0,0-1.691,1.185,13.438,13.438,0,0,1-2.183,1.907l-.093.049c-1.49.765-3.245.307-4.938.274-.253,0-.5,0-.749.016a9.459,9.459,0,0,0-3.848,1.344c-.856.479-1.691,1.019-2.531,1.506-.531.307-1.064.64-1.6.981a36.13,36.13,0,0,1-4.154,2.42,8.731,8.731,0,0,1-4.115.916h-.019a3.436,3.436,0,0,1-.412-.035c-.134,1.08.73,1.951,1.307,2.9a2.94,2.94,0,0,1,.488,1.374,2.469,2.469,0,0,1-.041.551,6.928,6.928,0,0,0-.34,1.992,2.306,2.306,0,0,0,.438,1.082c.366.523.874.988,1.22,1.533a8.259,8.259,0,0,1,.862,2.794,5.878,5.878,0,0,0,.677,1.936,8.271,8.271,0,0,0,1.761,1.784c.117.1.233.206.344.309.082.074.163.152.239.233a2.746,2.746,0,0,1,.852,2.9c-.014.033-.031.062-.047.093a.821.821,0,0,0,.113.068c.574.28,1.294-.169,1.765-.644.233-.233.453-.479.667-.73.574-.638,1.1-1.329,1.646-1.992.148-.179.3-.354.449-.527a7.613,7.613,0,0,1,2.033-1.646,7.469,7.469,0,0,1,1.247-.506c.638-.206,1.3-.358,1.936-.56a15.9,15.9,0,0,0,2.549-1.07,39.209,39.209,0,0,0,4.115-2.551l.206-.134a7.052,7.052,0,0,0,1.224-.977c.066-.072.13-.146.189-.222.321-.411.529-.9.823-1.327a4.27,4.27,0,0,1,1.154-1.113,17.009,17.009,0,0,1,4.463-1.646h.016a17.345,17.345,0,0,0,7.031-4.175l1.128,2.761q-.175.49-.331.99a8.046,8.046,0,0,1-.949,2.366,1.765,1.765,0,0,0-.358.636,2.058,2.058,0,0,1-.084.51c-.07.14-.216.233-.276.377-.086.206.027.471-.088.665a1.046,1.046,0,0,1-.2.206,1.366,1.366,0,0,0-.372,1.047,3.669,3.669,0,0,1-.093,1.136,2.7,2.7,0,0,1,.265-.138,1.236,1.236,0,0,0-.023.206,2.292,2.292,0,0,0,.072.578,4.566,4.566,0,0,0,.6,1.2,8.537,8.537,0,0,0,.644.926,8.437,8.437,0,0,0,1.362,1.218l2.074,1.6-.206.866a24.212,24.212,0,0,0-.932,5.525,23.809,23.809,0,0,0,.167,2.652l.179,1.807c.144,1.455.288,2.909.447,4.364a11.176,11.176,0,0,0,.531,2.72c.49,1.319-.051,2.809.156,4.2a7.427,7.427,0,0,1,.163,3.278c-.132.412-.362.807-.531,1.214a9.11,9.11,0,0,0-.5,3.235,13.745,13.745,0,0,0,.1,2.881,11.85,11.85,0,0,1,.492,2.947c-.107,1.418-1.144,2.63-1.27,4.047a5.97,5.97,0,0,0,.92,3.224c.389.739-.154,1.693-.36,2.506a6.371,6.371,0,0,0,1.1,4.675.231.231,0,0,0,.1.111c.095.035.183-.06.245-.14a1.674,1.674,0,0,1,.123-.146c0,.064.012.128.016.189,0,.134.01.267.01.412a4.136,4.136,0,0,0,.28,1.523,2.688,2.688,0,0,0,.115.276,1.271,1.271,0,0,0,.206.331,1.257,1.257,0,0,0,.823.346,10.657,10.657,0,0,0,2.058-.128c.724-.062,1.451-.035,2.177-.051a.315.315,0,0,0,.163-.035.278.278,0,0,0,.093-.148,1.646,1.646,0,0,0,.035-.811,5.744,5.744,0,0,0-.154-.644c-.1-.34-.185-.681-.27-1.029-.016-.064-.031-.128-.045-.191l.033.014q.665-1.494,1.331-2.988a2.69,2.69,0,0,0,.342-1.591,4.676,4.676,0,0,0-.5-1.068,6.268,6.268,0,0,1-.434-2.745l-.025-5.292a11.593,11.593,0,0,0,2.058-4.492,14.529,14.529,0,0,1,.121,7,6.518,6.518,0,0,0-.2,1.066c-.08,1.467,1.062,2.71,1.366,4.146a.935.935,0,0,1,.023.337,1.266,1.266,0,0,1-.169.391,6.1,6.1,0,0,0-.412,3.352l.241.039a.638.638,0,0,0,.255.251h0a1.259,1.259,0,0,0,.319.132,7.856,7.856,0,0,0,1.2.183c.58.058,1.163.115,1.745.152.23.014.461.027.691.033a6.9,6.9,0,0,1,.968.068,7,7,0,0,1,1.028.3,6.573,6.573,0,0,0,4.632.163,2.087,2.087,0,0,0,.846-.6,1,1,0,0,0-.249-1.547Zm-19.9-58.656c.218.434.436.866.617,1.317a4.541,4.541,0,0,1,.346,2.761c-.066.268-.5.473-.494.749a.624.624,0,0,0-.033.064l-1.344-3.292a11.745,11.745,0,0,1,.907-1.6Zm-1.475,7a5.693,5.693,0,0,1-.728-1.257c-.025-.056-.051-.109-.076-.165a.494.494,0,0,0,.2-.146c.206-.259.095-.638.126-.971a2.1,2.1,0,0,1,.327-.823l1.261,3.086q-.191.5-.358,1.014A7.2,7.2,0,0,1,129.973,266.158Z" transform="translate(-86.305 -189.673)"/><path class="e" d="M315.49,259.366a3.686,3.686,0,0,0,.317,1.235,4.368,4.368,0,0,1-.06,2.416,4.177,4.177,0,0,0-.323,2.5c.068.189.171.362.232.551a2.531,2.531,0,0,1-.737,2.245l2.035,1.426a2.339,2.339,0,0,0,1.029.492.805.805,0,0,0,.9-.533c.027-.128,0-.261.025-.391a1.062,1.062,0,0,1,.57-.79,1.864,1.864,0,0,1,.986-.183c1.249.068,2.311.889,3.446,1.416a13.865,13.865,0,0,0,2.319.77,1.863,1.863,0,0,0,1.358,0,1.288,1.288,0,0,0,.564-1.216,3.976,3.976,0,0,0-.432-1.34,3.407,3.407,0,0,1-.4-1.348,11.224,11.224,0,0,1,.506-2,4.559,4.559,0,0,0-.63-2.823,11.963,11.963,0,0,1-1.2-2.675,3.909,3.909,0,0,0-.224-.846,1.926,1.926,0,0,0-.411-.551,4.606,4.606,0,0,0-2.918-1.191,13.223,13.223,0,0,0-3.2.28,6.693,6.693,0,0,0-1.187.282,7.54,7.54,0,0,0-1.562.846A2.034,2.034,0,0,0,315.49,259.366Z" transform="translate(-267.381 -210.658)"/><g class="g" transform="translate(47.533 48.572)"><path d="M375.169,294.611a.9.9,0,0,0,.012.183c.064-.6.381-1.169.494-1.772a2.928,2.928,0,0,0,.039-.732,2.01,2.01,0,0,1-.039.321A10.4,10.4,0,0,0,375.169,294.611Z" transform="translate(-362.766 -287.65)"/><path d="M318.138,271.933A3.686,3.686,0,0,0,318,270.7a7.155,7.155,0,0,1-.3-.959c0,.043-.016.084-.019.128A3.684,3.684,0,0,0,318,271.1,3.475,3.475,0,0,1,318.138,271.933Z" transform="translate(-317.107 -269.74)"/><path d="M328.11,313.17a1.177,1.177,0,0,1-.551.907,1.863,1.863,0,0,1-1.358,0,13.692,13.692,0,0,1-2.319-.772c-1.136-.525-2.2-1.346-3.446-1.414a1.865,1.865,0,0,0-.986.183,1.062,1.062,0,0,0-.57.79c-.014.13,0,.263-.025.391a.807.807,0,0,1-.9.533,2.339,2.339,0,0,1-1.029-.492l-1.829-1.284c-.068.093-.136.183-.206.267l2.035,1.428a2.339,2.339,0,0,0,1.029.492.805.805,0,0,0,.9-.533c.027-.128,0-.261.025-.391a1.062,1.062,0,0,1,.57-.79,1.865,1.865,0,0,1,.986-.183c1.249.068,2.311.889,3.446,1.414a13.689,13.689,0,0,0,2.319.772,1.863,1.863,0,0,0,1.358,0,1.288,1.288,0,0,0,.564-1.216C328.12,313.237,328.114,313.2,328.11,313.17Z" transform="translate(-314.89 -303.213)"/><path d="M317.194,297.549a1.6,1.6,0,0,1,.056.253,1.492,1.492,0,0,0-.056-.665c-.062-.189-.165-.362-.233-.551a1.723,1.723,0,0,1-.095-.426,1.934,1.934,0,0,0,.095.837C317.03,297.187,317.133,297.362,317.194,297.549Z" transform="translate(-316.452 -290.724)"/></g><path class="e" d="M306.87,666.106a.269.269,0,0,1-.095.148.315.315,0,0,1-.163.035c-.732.016-1.465,0-2.2.051a10.494,10.494,0,0,1-2.074.128,1.064,1.064,0,0,1-1.029-.677,2.7,2.7,0,0,1-.115-.276,4.1,4.1,0,0,1-.282-1.523v-.412a3.122,3.122,0,0,0-.06-.449.681.681,0,0,1,.021-.521,1.819,1.819,0,0,1,1.541-.681,12.726,12.726,0,0,1,3.755.276c.1.473.206.942.321,1.412q.128.516.272,1.029a5.752,5.752,0,0,1,.156.644A1.646,1.646,0,0,1,306.87,666.106Z" transform="translate(-256.179 -532.633)"/><path class="h" d="M308.351,679.227a.269.269,0,0,1-.095.148.315.315,0,0,1-.163.035c-.732.016-1.465,0-2.2.051a10.5,10.5,0,0,1-2.074.128,1.064,1.064,0,0,1-1.029-.677,2.689,2.689,0,0,1-.115-.276h.263c.866,0,1.735-.031,2.6-.031a6.658,6.658,0,0,0,.784-.043c.259-.031.471-.074.708-.1a9.694,9.694,0,0,1,1.066-.043h.292A1.647,1.647,0,0,1,308.351,679.227Z" transform="translate(-257.66 -545.754)"/><path class="e" d="M358.261,651.184a2.105,2.105,0,0,1-.852.6,6.726,6.726,0,0,1-4.671-.163,7.128,7.128,0,0,0-1.039-.3,6.989,6.989,0,0,0-.973-.068c-.232,0-.465-.019-.7-.033-.588-.037-1.175-.095-1.759-.152a7.947,7.947,0,0,1-1.21-.183,1.284,1.284,0,0,1-.323-.132h0a.5.5,0,0,1-.3-.442c.016-.261.288-.412.527-.525a25.728,25.728,0,0,1,6.7-1.632,2.685,2.685,0,0,0,.673-.206c.257-.1.284.066.412.255a1.585,1.585,0,0,0,.206.243,2.447,2.447,0,0,0,.856.5c.556.206,1.15.261,1.706.457a2.336,2.336,0,0,1,.479.23.992.992,0,0,1,.251,1.547Z" transform="translate(-292.416 -521.532)"/><path class="h" d="M372.112,657.817a2.1,2.1,0,0,1-.852.6,6.726,6.726,0,0,1-4.671-.163,7.126,7.126,0,0,0-1.039-.3,7,7,0,0,0-.973-.068c-.233,0-.465-.019-.7-.033.189-.179.383-.354.58-.523a1.729,1.729,0,0,1,.488-.321,1.412,1.412,0,0,1,.693-.047c1.177.163,2.235.988,3.422.916a4.208,4.208,0,0,0,1.574-.508,2.749,2.749,0,0,0,1.029-.732,1.188,1.188,0,0,0,.191-.368.992.992,0,0,1,.251,1.547Z" transform="translate(-306.267 -528.166)"/><path class="i" d="M383.445,422.192a1.7,1.7,0,0,1-.914.986c-.646.185-1.267-.4-1.549-1a4.337,4.337,0,0,1-.206-2.831c.117-.475.3-.932.4-1.409a8.588,8.588,0,0,0,.132-1.216,7.436,7.436,0,0,0-.043-1.827c-.331-1.767-1.852-3.086-2.358-4.823a9,9,0,0,1-.228-2.691,2.768,2.768,0,0,1,.07-.679,1.06,1.06,0,0,1,.062-.177c.339-.753,1.346-.856,2.045-1.294.387-.241,1.265-1.016,1.591-.309a2.326,2.326,0,0,1,.156.492,13.078,13.078,0,0,1,.113,1.963c.126,2.247.685,4.49.426,6.724a7.012,7.012,0,0,0-.091,1.152,12.469,12.469,0,0,0,.938,2.73A5.894,5.894,0,0,1,383.445,422.192Z" transform="translate(-318.013 -328.3)"/><path class="d" d="M382.944,405.4a.694.694,0,0,0-.473,0l-1.393.412a8.624,8.624,0,0,0-1.422.516,3.337,3.337,0,0,0-.566.352,1.057,1.057,0,0,1,.062-.177c.34-.753,1.346-.856,2.045-1.294.387-.241,1.265-1.016,1.591-.309A2.326,2.326,0,0,1,382.944,405.4Z" transform="translate(-318.348 -328.284)"/><path class="e" d="M372.392,337.6a.63.63,0,0,0-.564-.045l-1.393.411a8.629,8.629,0,0,0-1.422.516,3.267,3.267,0,0,0-.677.44,9.145,9.145,0,0,1-.942-3.765c-.066-.755-.115-1.512-.144-2.263a10.144,10.144,0,0,1,.033-1.621c.078-.617.257-1.22.368-1.833a8.373,8.373,0,0,0,.128-1.086,10.62,10.62,0,0,0-.109-2.385,14.784,14.784,0,0,0-.572-2.469c-.132-.368-.29-.724-.434-1.086l-.049-.128a15,15,0,0,1-.636-2.039c-.066-.284-.07-.582-.288-.776a3.863,3.863,0,0,1,.617-.025h.123a4.615,4.615,0,0,1,2.354.823,5.5,5.5,0,0,1,1.951,2.58,11.876,11.876,0,0,1,.562,3.654q.167,3.646.206,7.3a2.329,2.329,0,0,0,.288,1.35,2.751,2.751,0,0,1,.206.3c.1.206.082.434.16.642a3.256,3.256,0,0,0,.2.362A1.327,1.327,0,0,1,372.392,337.6Z" transform="translate(-307.705 -260.646)"/><path class="i" d="M329.317,289.516c-.206-.068-.412-.14-.617-.206l.428.033A.863.863,0,0,1,329.317,289.516Z" transform="translate(-278.326 -236.712)"/><path class="i" d="M333.8,297.752c-.041.14-.082.28-.128.412a7.868,7.868,0,0,1-.381.99,4.6,4.6,0,0,1-.973,1.411,1.293,1.293,0,0,1-.486.321,1.543,1.543,0,0,1-.477.045q-.823,0-1.646-.025a5.848,5.848,0,0,1-1.272-.126,4.542,4.542,0,0,1-1.3-.584,7.7,7.7,0,0,1-3.342-4.115.682.682,0,0,1,.035-.65.8.8,0,0,1,.525-.179h.025a3.314,3.314,0,0,0,1.253-.43,1.288,1.288,0,0,0,.572-.584,1.577,1.577,0,0,0-.018-.909l-.457-2.074a2.148,2.148,0,0,0-.364-.924c.134.047.267.091.411.128,1.272.344,2.663.136,3.909.586a1.666,1.666,0,0,1,1.1.979c.241.823-.564,1.677-.333,2.5.154.56.724.883,1.235,1.144l.344.175.953.484.132.066.021.01a1.292,1.292,0,0,1,.722.665A1.235,1.235,0,0,1,333.8,297.752Z" transform="translate(-274.384 -237.522)"/><path class="d" d="M336.312,320.68a4.443,4.443,0,0,1-.379,1.523,6.22,6.22,0,0,0-.648,2.675c-.158,2.778-1.214,6.084.3,8.418.037.058.074.115.109.175a3.265,3.265,0,0,0-.677.44,9.144,9.144,0,0,1-.942-3.765c-.066-.755-.115-1.512-.144-2.263a10.157,10.157,0,0,1,.033-1.621c.078-.617.257-1.22.368-1.833a8.372,8.372,0,0,0,.128-1.086,10.627,10.627,0,0,0-.109-2.385,14.783,14.783,0,0,0-.572-2.469c-.132-.368-.29-.724-.434-1.086l-.049-.128a4.606,4.606,0,0,1-.973,1.411,1.291,1.291,0,0,1-.486.321,1.543,1.543,0,0,1-.477.045q-.823,0-1.646-.025a5.85,5.85,0,0,1-1.272-.126,4.541,4.541,0,0,1-1.3-.584A7.7,7.7,0,0,1,323.8,314.2a.682.682,0,0,1,.035-.65.8.8,0,0,1,.525-.179h.025l1.852,2.29a3.706,3.706,0,0,1,.535.8.477.477,0,0,0,.165.245.421.421,0,0,0,.206.037h5.794a1.5,1.5,0,0,0-.255-.866c-.053.012-.125.016-.014-.016a5.832,5.832,0,0,0-.638-1.907,1.335,1.335,0,0,0-.064-.119,2.194,2.194,0,0,1-.3-.667.845.845,0,0,1,1.171.636c.095.206.189.426.274.642,0,.023.021.047.029.07a4.658,4.658,0,0,1,.342,1.335c.012.169.054.383.193.438a.183.183,0,0,0,.07.016.778.778,0,0,1,.842.206,1.852,1.852,0,0,1,.411.811,4.435,4.435,0,0,0,.292.872c.265.506-.14.733.34,1.043a1.672,1.672,0,0,1,.564.506A1.58,1.58,0,0,1,336.312,320.68Z" transform="translate(-274.384 -255.618)"/><path class="d" d="M306.085,662.247c.1.473.206.942.321,1.412l-.012.029a9.548,9.548,0,0,0-2.93-.932,3.246,3.246,0,0,0-2.636.866,3.118,3.118,0,0,0-.06-.449.681.681,0,0,1,.021-.521,1.82,1.82,0,0,1,1.541-.681A12.725,12.725,0,0,1,306.085,662.247Z" transform="translate(-256.108 -532.665)"/><path class="d" d="M365.941,328.37c.1,0,.062,0,.014.016S365.83,328.4,365.941,328.37Z" transform="translate(-307.859 -267.735)"/><path class="d" d="M354.969,648.447a17.861,17.861,0,0,0-2.576,1.994,2.7,2.7,0,0,1-.813.595,2.375,2.375,0,0,1-.979.1,33.327,33.327,0,0,1-3.864-.383h0a.5.5,0,0,1-.3-.442c.016-.261.288-.411.527-.525a25.727,25.727,0,0,1,6.7-1.632,2.687,2.687,0,0,0,.673-.206c.257-.1.284.066.411.255A1.583,1.583,0,0,0,354.969,648.447Z" transform="translate(-292.416 -521.532)"/><path class="j" d="M295.535,313.969c.3.27.648.488.955.749a8.636,8.636,0,0,1,1.852,2.623,1.716,1.716,0,0,1-.944.064,6.774,6.774,0,0,0,.08,2.751,2.552,2.552,0,0,0-.92,1.142,7.637,7.637,0,0,0-.3,1.44q-.444,3.212-.893,6.424a1,1,0,0,1-.206.578,1.109,1.109,0,0,0-.156.154.855.855,0,0,0-.072.442c-.012.15-.111.329-.261.309a.325.325,0,0,1-.183-.119,4.2,4.2,0,0,1-.411-.51,33.1,33.1,0,0,0-2.44,7.387,17.894,17.894,0,0,0-.774,8.173l.181,1.807c.146,1.453.292,2.907.451,4.36a10.975,10.975,0,0,0,.537,2.72c.494,1.319-.053,2.807.156,4.2a7.389,7.389,0,0,1,.163,3.276c-.132.422-.362.807-.535,1.214a9.113,9.113,0,0,0-.5,3.235,13.58,13.58,0,0,0,.107,2.881,11.8,11.8,0,0,1,.5,2.946c-.109,1.418-1.154,2.63-1.282,4.045a5.937,5.937,0,0,0,.928,3.222c.393.739-.154,1.693-.362,2.506a6.346,6.346,0,0,0,1.113,4.673.224.224,0,0,0,.107.111c.1.035.183-.06.247-.14a3.166,3.166,0,0,1,2.778-1.029,9.3,9.3,0,0,1,2.93.932l1.335-2.973a2.661,2.661,0,0,0,.344-1.591,4.606,4.606,0,0,0-.506-1.068,6.235,6.235,0,0,1-.436-2.745l-.025-5.288a11.563,11.563,0,0,0,2.078-4.49,14.4,14.4,0,0,1,.123,7,6.346,6.346,0,0,0-.206,1.066c-.08,1.467,1.07,2.708,1.377,4.144a.891.891,0,0,1,.025.337,1.271,1.271,0,0,1-.171.391,6.022,6.022,0,0,0-.412,3.352,33.4,33.4,0,0,0,4.364.467,2.452,2.452,0,0,0,.979-.1,2.7,2.7,0,0,0,.813-.6,17.944,17.944,0,0,1,3.06-2.315,7.124,7.124,0,0,0-2.5-2.469c.331-.488,1.086-.449,1.527-.84a1.44,1.44,0,0,0,.412-.811,5.509,5.509,0,0,0-.243-2.438,29,29,0,0,0-1.44-4.6,17.67,17.67,0,0,1-.774-1.862c-.539-1.774-.163-3.7-.57-5.516a3.8,3.8,0,0,1-.2-1.757c.226-.891,1.235-1.42,1.457-2.313a92,92,0,0,0,1.391-9.718,12.489,12.489,0,0,0,.163-1.874c0-.656-.117-1.307-.165-1.961-.185-2.619.652-5.232.438-7.85a9.876,9.876,0,0,0-1.547-4.527c-1.512-2.335-.457-5.64-.3-8.418a6.189,6.189,0,0,1,.646-2.675,4.389,4.389,0,0,0,.381-1.523,1.574,1.574,0,0,0-.115-.961,1.623,1.623,0,0,0-.562-.506c-.479-.313-.074-.539-.34-1.045a4.389,4.389,0,0,1-.292-.872,1.836,1.836,0,0,0-.412-.809.778.778,0,0,0-.842-.206c-.2,0-.249-.259-.265-.455a6.411,6.411,0,0,0-.642-2.047,1.117,1.117,0,0,0-.5-.636,1.134,1.134,0,0,0-.677,0,2.187,2.187,0,0,0,.307.669,5.811,5.811,0,0,1,.7,2.025c-.206.062.206,0,0,0a1.44,1.44,0,0,1,.27.883h-5.792a.412.412,0,0,1-.206-.037.494.494,0,0,1-.167-.245,3.565,3.565,0,0,0-.535-.8l-2.037-2.512a.515.515,0,0,0-.175-.158.473.473,0,0,0-.257,0A4.628,4.628,0,0,0,295.535,313.969Z" transform="translate(-248.078 -255.72)"/><path class="d" d="M343.355,482.209a1.963,1.963,0,0,1,1,.259,1.01,1.01,0,0,1,.5.868,2.3,2.3,0,0,1-.537,1.029,2.758,2.758,0,0,0-.317.65.261.261,0,0,0-.016.167c.025.078.109.117.181.152a1.545,1.545,0,0,1,.907,1.35c-.018.8-.8,1.453-.759,2.263a4.658,4.658,0,0,0,.086.5,3.835,3.835,0,0,1-.278,2.035c-.249.646-.589,1.253-.856,1.893a13.427,13.427,0,0,0-.823,5.555,10.709,10.709,0,0,1-.823,3.728,53.582,53.582,0,0,0,.185-7.407c-.029-.671-.113-1.3-.082-1.977.049-1.068.646-2.039.8-3.086a15.2,15.2,0,0,0,.043-1.813c.029-1.235.364-2.453.387-3.691A4.766,4.766,0,0,1,343.355,482.209Z" transform="translate(-288.587 -389.92)"/><path class="e" d="M295.933,316.8a5.644,5.644,0,0,0-1.14.753,4.855,4.855,0,0,0-.9,1.235,15.77,15.77,0,0,0-.763,1.6,3.558,3.558,0,0,0-.331,2.23,7.682,7.682,0,0,0,1.047,1.784,15.187,15.187,0,0,1,.833,1.944c.362.87.858,1.681,1.216,2.553a4.523,4.523,0,0,1,.348,2.759c-.066.267-.5.475-.5.749,0,.453.654.944,1.089,1.076a1.629,1.629,0,0,0,1.455-.411,5.351,5.351,0,0,0,1.545-2.383,24.382,24.382,0,0,0,1.095-4.488c.189-1.115.366-2.232.467-3.356a8.543,8.543,0,0,0-.146-3.029,5.144,5.144,0,0,0-1.405-2.337,3.908,3.908,0,0,0-2.189-1.224A3.608,3.608,0,0,0,295.933,316.8Z" transform="translate(-249.752 -258.108)"/><path class="i" d="M286.347,403.4a.983.983,0,0,1-.459.685,2.7,2.7,0,0,1-.784.321,3.257,3.257,0,0,1-1.693.167,3.4,3.4,0,0,1-1.189-.677l-6.23-4.77a8.412,8.412,0,0,1-1.372-1.218,8.77,8.77,0,0,1-.65-.924,4.528,4.528,0,0,1-.6-1.2,2.2,2.2,0,0,1-.074-.578,1.088,1.088,0,0,1,.132-.529c.15-.251.471-.3.735-.372a7.708,7.708,0,0,1,2.71-.206.368.368,0,0,1,.366.249c.138.253.257.516.381.78a5.64,5.64,0,0,0,.735,1.257,10.6,10.6,0,0,0,.916.883c.658.617,1.2,1.358,1.9,1.926a15.857,15.857,0,0,0,2.726,1.533,5.034,5.034,0,0,1,2.3,2.047A1.2,1.2,0,0,1,286.347,403.4Z" transform="translate(-234.317 -319.906)"/><path class="d" d="M332.468,258.075a5.095,5.095,0,1,1-.142-1.193,5.095,5.095,0,0,1,.142,1.193Z" transform="translate(-273.225 -207.858)"/><path class="i" d="M332.468,257.075a5.095,5.095,0,1,1-.142-1.193,5.095,5.095,0,0,1,.142,1.193Z" transform="translate(-273.225 -207.063)"/><path class="d" d="M277.613,395.118a1.2,1.2,0,0,1-.872.035,5.457,5.457,0,0,0-3.451.051,1.088,1.088,0,0,1,.132-.529c.15-.251.471-.3.735-.372a7.707,7.707,0,0,1,2.71-.206.368.368,0,0,1,.366.249C277.37,394.591,277.489,394.854,277.613,395.118Z" transform="translate(-234.317 -319.906)"/><path class="e" d="M274.518,344.794a8.03,8.03,0,0,1-.957,2.366,1.75,1.75,0,0,0-.362.634,1.974,1.974,0,0,1-.084.51c-.07.14-.218.233-.278.377-.089.206.027.471-.091.665a.988.988,0,0,1-.2.206,1.44,1.44,0,0,0-.356,1.056,3.594,3.594,0,0,1-.095,1.134,5.1,5.1,0,0,1,3.7-.179c.344.076.77.134.992-.142s.095-.638.125-.969a3.85,3.85,0,0,1,.521-1.183,14.089,14.089,0,0,0,.434-1.4,23.279,23.279,0,0,1,1.479-2.675,2.57,2.57,0,0,0,.292-1.016,3.033,3.033,0,0,0-.352-1.319,18.042,18.042,0,0,0-1.523-2.718c-.261-.385-.712-1.1-1.117-.481a11.534,11.534,0,0,0-.778,1.671,30.578,30.578,0,0,0-1.36,3.463Z" transform="translate(-233.372 -276.51)"/><path class="e" d="M329.213,270.127a4.158,4.158,0,0,1-3.329-1.315.51.51,0,0,1-.148-.241.484.484,0,0,1,.095-.337c.247-.381.673-.632.87-1.041a3.3,3.3,0,0,0,.148-1.329c.033-.8.35-1.6.377-2.393a2.5,2.5,0,0,0-.045-.6,3.792,3.792,0,0,1-.173-.911c.027-.6.57-1.072.66-1.667.117-.757-.51-1.416-1.142-1.852a6.8,6.8,0,0,0-1.556-.8,5.063,5.063,0,0,0-1.045-.253,4.074,4.074,0,0,0-1.969.22,3.218,3.218,0,0,0-.732.391.992.992,0,0,0-.327.34,1.1,1.1,0,0,0-.086.492,5.244,5.244,0,0,1-.319,2.469c-.206.393-.556.712-.726,1.128a1.874,1.874,0,0,0-.13.541,5.443,5.443,0,0,0-.031.58,6.052,6.052,0,0,0,.551,3.169,8.262,8.262,0,0,1,.529.887,1.01,1.01,0,0,1-.051.986,1.121,1.121,0,0,1-.412.309,3.292,3.292,0,0,1-2.632.095,3.335,3.335,0,0,0,.778-3.72,2.2,2.2,0,0,1-.284-.823,2.089,2.089,0,0,1,.206-.753,4.115,4.115,0,0,0,.126-2.411,8.8,8.8,0,0,1-.383-1.467,4.439,4.439,0,0,1,.049-1.14,3.7,3.7,0,0,1,2.537-2.92c.1-.035.206-.068.321-.1a6.845,6.845,0,0,1,1.521-.163,11.544,11.544,0,0,1,3.4.228,4.564,4.564,0,0,1,1.761.905,3.178,3.178,0,0,1,.852,1.126,3.908,3.908,0,0,1,.241.778c.047.22.082.442.117.665a14.931,14.931,0,0,1,.233,4.776c-.1.617-.288,1.235-.37,1.864A11.266,11.266,0,0,0,329.213,270.127Z" transform="translate(-269.502 -209.831)"/><circle class="k" cx="0.383" cy="0.383" r="0.383" transform="translate(52.018 61.563)"/><circle class="k" cx="0.383" cy="0.383" r="0.383" transform="translate(58.477 61.382)"/><path class="d" d="M335.373,233.7l-.823-1.553a1.5,1.5,0,0,1,.171-.173.652.652,0,0,1,.4-.095Z" transform="translate(-282.972 -191.097)"/><path class="d" d="M343.933,230.5,343,231.875l-.531-1.512a1.683,1.683,0,0,1,.718-.136A2.387,2.387,0,0,1,343.933,230.5Z" transform="translate(-289.262 -189.785)"/><g class="g" transform="translate(48.088 47.097)"><path d="M320.633,316.06a1.121,1.121,0,0,1-.412.309,3.306,3.306,0,0,1-2.339.2,3.206,3.206,0,0,1-.292.311,3.292,3.292,0,0,0,2.632-.095,1.121,1.121,0,0,0,.411-.309.887.887,0,0,0,.132-.712A.73.73,0,0,1,320.633,316.06Z" transform="translate(-317.59 -304.816)"/><path d="M319.992,275.732a4.055,4.055,0,0,1,.117.823,4.1,4.1,0,0,0-.117-1.235,8.8,8.8,0,0,1-.383-1.467,1.233,1.233,0,0,0-.01-.193,4.6,4.6,0,0,0,.01.6A8.8,8.8,0,0,0,319.992,275.732Z" transform="translate(-319.181 -271.378)"/><path d="M371.665,290.456a9,9,0,0,0,.111-1.646,8.579,8.579,0,0,1-.111,1.235c-.1.617-.288,1.235-.37,1.864a6.5,6.5,0,0,0-.047,1.019,6.074,6.074,0,0,1,.047-.607C371.377,291.691,371.56,291.079,371.665,290.456Z" transform="translate(-360.204 -283.411)"/><path d="M320.234,298.646a3.385,3.385,0,0,1-.259-.636.931.931,0,0,0-.025.226,2.2,2.2,0,0,0,.284.823,3.109,3.109,0,0,1,.257,1.091A3.189,3.189,0,0,0,320.234,298.646Z" transform="translate(-319.464 -290.718)"/><path d="M363.509,287.3a2.687,2.687,0,0,1,.039.284v-.091a2.5,2.5,0,0,0-.045-.6c-.045-.216-.119-.43-.154-.648a.92.92,0,0,0-.019.148A3.8,3.8,0,0,0,363.509,287.3Z" transform="translate(-353.919 -281.37)"/><path d="M357.315,317.885a1.088,1.088,0,0,1-.089-.1.426.426,0,0,0-.06.276.51.51,0,0,0,.148.241,4.158,4.158,0,0,0,3.329,1.315c-.035-.136-.07-.27-.1-.411a4.153,4.153,0,0,1-3.226-1.315Z" transform="translate(-349.021 -306.42)"/><path d="M340.072,265.54a.088.088,0,0,1,0-.023c.117-.757-.51-1.416-1.142-1.852a6.8,6.8,0,0,0-1.556-.8,5.065,5.065,0,0,0-1.045-.253,4.075,4.075,0,0,0-1.969.22,3.216,3.216,0,0,0-.732.391.992.992,0,0,0-.327.339,1.1,1.1,0,0,0-.086.492v.412a1.1,1.1,0,0,1,.086-.492.992.992,0,0,1,.327-.34,3.217,3.217,0,0,1,.732-.391,4.075,4.075,0,0,1,1.969-.22,5.063,5.063,0,0,1,1.045.253,6.806,6.806,0,0,1,1.556.8A2.458,2.458,0,0,1,340.072,265.54Z" transform="translate(-329.998 -262.572)"/><path d="M328.267,275.531c-.206.393-.556.712-.726,1.128a1.874,1.874,0,0,0-.13.541,5.443,5.443,0,0,0-.031.58v.412a5.456,5.456,0,0,1,.031-.581,1.875,1.875,0,0,1,.13-.54,12.951,12.951,0,0,1,.726-1.128,4.132,4.132,0,0,0,.319-2.033,3.432,3.432,0,0,1-.319,1.621Z" transform="translate(-325.366 -271.577)"/></g><path class="d" d="M330.544,255.778a.6.6,0,0,1-.1.109.944.944,0,0,1-.241.144c-.6.259-.574-.586-.887-.877a1.064,1.064,0,0,0-.7-.206q-.9-.045-1.809-.08c-1.006-.037-2.01-.056-3.014-.033q-.722.012-1.44.06a3.923,3.923,0,0,0-1.626.372,1.723,1.723,0,0,0-.434.34c-.113.123-.232.28-.389.309a3.7,3.7,0,0,1,2.537-2.92,5.092,5.092,0,0,1,7,.874,3.178,3.178,0,0,1,.852,1.125,3.909,3.909,0,0,1,.249.782Z" transform="translate(-271.344 -207.069)"/><path class="l" d="M329.388,238.32c-.6.259-.574-.586-.887-.877a1.064,1.064,0,0,0-.7-.206,54.841,54.841,0,0,0-6.263-.053,2.956,2.956,0,0,0-2.058.712c-.128.14-.261.321-.453.315-.064-.412-.109-.84-.14-1.261a1.4,1.4,0,0,1,.025-.473c.051-.177.169-.327.228-.5a2,2,0,0,0,.062-.675,4.877,4.877,0,0,1,2.4-4.148,2.18,2.18,0,0,0,.5-.337,1.507,1.507,0,0,1,.171-.173.652.652,0,0,1,.4-.095h.292a2.656,2.656,0,0,0,.772-.206,1.684,1.684,0,0,1,.718-.136,2.388,2.388,0,0,1,.745.27,1.807,1.807,0,0,0,.348.126c.187.043.381.041.568.078a2.771,2.771,0,0,1,.852.379,4.063,4.063,0,0,1,.856.617,3.788,3.788,0,0,1,.663,1.078,7.724,7.724,0,0,1,.617,1.712,9.418,9.418,0,0,0,.479,2.547C329.825,237.5,330.045,238.038,329.388,238.32Z" transform="translate(-270.529 -189.769)"/><path class="d" d="M319.25,259.015s4.265-3.881,10.617-.663C329.867,258.352,322.7,256.721,319.25,259.015Z" transform="translate(-270.82 -211.11)"/><path class="m" d="M88.232,286.877c-.58-.951-1.453-1.821-1.317-2.9a8.479,8.479,0,0,0,4.574-.883,37.794,37.794,0,0,0,4.191-2.418c.539-.34,1.076-.673,1.611-.981.848-.486,1.689-1.029,2.551-1.5a9.629,9.629,0,0,1,3.881-1.342,7.077,7.077,0,0,1,.755-.018c1.708.033,3.477.492,4.979-.274l.093-.049a13.293,13.293,0,0,0,2.2-1.905,9.832,9.832,0,0,1,1.706-1.185c1.109-.617,2.311-1.111,3.444-1.693a5.224,5.224,0,0,0,.823-.527l.193-.154.043-.037c.047-.039.095-.078.14-.119l.088-.078.091-.082.07-.066.113-.107.012-.014.179-.177.072-.072.126-.13.074-.074c.126-.13.251-.261.379-.389s.3-.3.455-.442h0l.148-.132.043-.037.119-.1.056-.047.117-.091.058-.045c.058-.043.117-.084.177-.125a1.287,1.287,0,0,1,.173-.1l-.385-.932,1.107-.457,15.267,37.047-1.109.457L126.8,283.5l-.062.062a17.531,17.531,0,0,1-7.22,4.3H119.5a17.018,17.018,0,0,0-4.5,1.636,4.321,4.321,0,0,0-1.163,1.113c-.3.428-.51.916-.823,1.327-.06.076-.126.15-.191.22a7.157,7.157,0,0,1-1.235.979l-.2.134a40.007,40.007,0,0,1-4.136,2.549,16.317,16.317,0,0,1-2.57,1.07c-.644.206-1.309.356-1.953.56a7.643,7.643,0,0,0-1.257.506,9.2,9.2,0,0,0-2.72,2.416c-.693.835-1.352,1.72-2.113,2.482-.477.473-1.2.922-1.78.644l-.117-.068c.019-.031.033-.062.049-.095a2.729,2.729,0,0,0-.858-2.893c-.078-.08-.158-.158-.241-.232s-.23-.206-.348-.309a8.377,8.377,0,0,1-1.776-1.782,5.812,5.812,0,0,1-.683-1.936,8.227,8.227,0,0,0-.87-2.792c-.346-.545-.86-1.01-1.235-1.533a2.335,2.335,0,0,1-.453-1.058,6.864,6.864,0,0,1,.344-1.99,2.484,2.484,0,0,0,.043-.551A2.92,2.92,0,0,0,88.232,286.877Z" transform="translate(-86.28 -219.143)"/><rect class="n" width="1.179" height="39.397" transform="translate(49.955 84.784) rotate(157.6)"/><path class="o" d="M92.033,299.423a8.068,8.068,0,0,1,.854,2.745,5.782,5.782,0,0,0,.673,1.905,8.28,8.28,0,0,0,1.745,1.751c.115.1.23.206.342.3.08.072.16.15.237.226a2.686,2.686,0,0,1,.844,2.846.783.783,0,0,1-.047.093.942.942,0,0,0,.113.066c.568.276,1.282-.165,1.751-.632.749-.749,1.4-1.617,2.078-2.438a9.009,9.009,0,0,1,2.675-2.377,7.408,7.408,0,0,1,1.235-.5c.632-.206,1.286-.352,1.92-.549a16.16,16.16,0,0,0,2.527-1.051,39.613,39.613,0,0,0,4.074-2.508l.193-.132a7.072,7.072,0,0,0,1.214-.961c.066-.07.13-.142.189-.218.317-.412.525-.883.823-1.3a4.251,4.251,0,0,1,1.144-1.095,16.713,16.713,0,0,1,4.426-1.609h.016a17.271,17.271,0,0,0,7.1-4.224,1.156,1.156,0,0,0,.356-.523,1.207,1.207,0,0,0-.243-.833c-.175-.3-.346-.6-.514-.905a40.433,40.433,0,0,1-2.029-4.265c-.13-.321-.255-.64-.377-.963q-.467-1.235-.852-2.5c-.084-.28-.167-.562-.245-.844-.014-.053-.031-.111-.045-.173-.342-1.372-.8-4.584-2.206-3.623a8.144,8.144,0,0,0-1.163,1.01c-.274.278-.541.564-.823.84a8.322,8.322,0,0,1-.726.636,5.336,5.336,0,0,1-.823.519c-1.117.572-2.3,1.051-3.387,1.665a9.627,9.627,0,0,0-1.679,1.165,13.036,13.036,0,0,1-2.165,1.874l-.091.049c-1.477.751-3.216.3-4.9.267a7.4,7.4,0,0,0-.741.019,9.377,9.377,0,0,0-3.817,1.319c-.848.469-1.675,1-2.508,1.479-.527.3-1.053.63-1.584.965a36.244,36.244,0,0,1-4.115,2.379,8.456,8.456,0,0,1-4.5.866c-.134,1.06.722,1.916,1.294,2.85a2.829,2.829,0,0,1,.484,1.352,2.389,2.389,0,0,1-.039.541,7.067,7.067,0,0,0-.337,1.959,2.274,2.274,0,0,0,.442,1.035C91.188,298.429,91.692,298.888,92.033,299.423Z" transform="translate(-87.924 -225.308)"/><path class="i" d="M306.946,414.71a17.935,17.935,0,0,0,3.63,2.409c1.827.837.617,3.842.617,3.842a3.313,3.313,0,0,1-3.292-1.44C306.545,417.636,306.946,414.71,306.946,414.71Z" transform="translate(-261.004 -336.309)"/><path class="p" d="M725.921,544.62s-4.774,6.282-8.734,6.333-6.286,2.646-4.405,4.268,22.374-.926,22.374-.926.193-7.72-1.582-8.848S725.921,544.62,725.921,544.62Z" transform="translate(-582.852 -439.46)"/><path class="p" d="M1020.88,575.548s.73,4.975-1.527,8.368,4.078,4.7,4.078,4.7,4.6,1.282,4.938-3.266.226-8.025-.206-8.4-.792-2.928-.792-2.928Z" transform="translate(-826.484 -462.847)"/><path class="b" d="M677.45,422.261s-.167-16.092,15.757-22.634l3.7-7.035,1.774-4.321A10.514,10.514,0,0,1,706.1,382l2.868-.644.887-3.737a10.51,10.51,0,0,1,8.4-7.93,29.4,29.4,0,0,1,5.288-.494,4.551,4.551,0,0,1,3.866,2.263h0s15.086-.167,15.755,8.047c0,0,1.51,7.541,3.689,8.883,0,0,3.687-.837,7.375,4.527l4.023,13.745s10.56,9.889,7.374,18.93c0,0-4.358,6.2-26.483,2.01,0,0-23.634,7.2-36.214-2.675C702.927,424.943,681.976,428.965,677.45,422.261Z" transform="translate(-555.317 -300.163)"/><path class="q" d="M728.77,539.32s3.354-4.693,3.185-8.047a106.633,106.633,0,0,1,.79-11.523" transform="translate(-596.077 -419.736)"/><path class="q" d="M788.24,494.12s3.352-6.2,3.016-9.554c0,0,3.521-6.379,6.2-5.868" transform="translate(-643.311 -387.108)"/><path class="q" d="M877.85,444.933s9.218-3.352,9.722-6.033" transform="translate(-714.483 -355.522)"/><path class="q" d="M894.14,484.343s9.722-4.358,9.722-5.533h4.858s7.041,9.22,6.2,13.243" transform="translate(-727.421 -387.22)"/><path class="q" d="M831.77,537.992s-9.387-.671-12.741,2.012-9.387,4.023-9.387,4.023-3.521,7.543-4.862,8.883-3.521,6.035-3.521,6.035" transform="translate(-653.652 -434.166)"/><path class="q" d="M949.54,581.46a24.516,24.516,0,0,0,2.346,5.531c1.341,2.012,3.352,9.218,3.352,9.218" transform="translate(-771.422 -468.749)"/><path class="q" d="M1026.11,631.15s2.127,5.92,4,5.977" transform="translate(-832.237 -508.214)"/><path class="q" d="M958.38,507.66s5.527,1.494,7.838,5.113,9.368,6.9,9.368,6.9" transform="translate(-778.443 -410.134)"/><path class="q" d="M969.9,421s0,7.71,2.179,7.71a61.767,61.767,0,0,1,7.041.837" transform="translate(-787.592 -341.305)"/><path class="q" d="M904.847,376.5s-.558,13.319-3.407,16.767" transform="translate(-733.219 -305.961)"/><g class="r" transform="translate(132.849 68.876)"><path d="M926.094,405.885l-4.023-13.745c-3.687-5.364-7.374-4.527-7.374-4.527-2.179-1.342-3.687-8.885-3.687-8.885-.671-8.214-15.757-8.045-15.757-8.045h0a4.551,4.551,0,0,0-3.874-2.263c-.712,0-1.44.023-2.169.082q.617.062,1.183.175l1.173,2.012s15.084-.169,15.755,8.045c0,0,1.51,7.543,3.689,8.885,0,0,3.687-.839,7.375,4.527l4.023,13.745s10.56,9.889,7.374,18.93c0,0-2.15,3.06-11.094,3.43,12.06.442,14.782-3.43,14.782-3.43C936.654,415.774,926.094,405.885,926.094,405.885Z" transform="translate(-856.354 -368.42)"/><path d="M740.269,639.29a78.261,78.261,0,0,1-10.739,1.175,68.493,68.493,0,0,0,11.383-.681C740.695,639.617,740.481,639.457,740.269,639.29Z" transform="translate(-729.53 -583.556)"/><path d="M896.587,652.33a68.844,68.844,0,0,1-15.827,2.5,67.125,67.125,0,0,0,18.062-2.1C898.093,652.606,897.354,652.468,896.587,652.33Z" transform="translate(-849.643 -593.913)"/></g><path class="b" d="M306.73,769.772s4.611-.142,6-1.132,7.09-2.171,7.436-.584,6.928,7.891,1.722,7.934-12.093-.811-13.479-1.656S306.73,769.772,306.73,769.772Z" transform="translate(-260.876 -616.335)"/><path class="s" d="M321.983,785.062c-5.206.043-12.095-.811-13.481-1.646-1.056-.644-1.477-2.953-1.617-4.016h-.154s.292,3.718,1.679,4.562,8.276,1.7,13.479,1.656c1.5-.012,2.023-.547,1.994-1.339C323.674,784.756,323.1,785.054,321.983,785.062Z" transform="translate(-260.876 -625.96)"/><path class="b" d="M770.794,702.6s-5.43-1.086-6.877-2.535-7.963-3.979-8.687-2.171-9.771,7.963-3.619,9.053,14.477,1.44,16.288.724S770.794,702.6,770.794,702.6Z" transform="translate(-612.525 -560.729)"/><path class="s" d="M751.616,726.68c6.154,1.084,14.477,1.44,16.288.722,1.376-.551,2.335-3.2,2.714-4.432l.181.039s-1.086,4.342-2.9,5.066-10.134.362-16.288-.724c-1.776-.313-2.284-1.049-2.093-1.979C749.676,725.984,750.3,726.451,751.616,726.68Z" transform="translate(-612.53 -581.141)"/><path class="a" d="M549.493,141.541H548.2a.905.905,0,0,0,0-1.811H537.732a.905.905,0,0,0,0,1.811h1.292a.905.905,0,0,0,0,1.809h-1.809a.905.905,0,0,0,0,1.811h10.469a.905.905,0,0,0,0-1.811h1.809a.905.905,0,1,0,0-1.809Z" transform="translate(-443.218 -117.909)"/><path class="a" d="M747.073,296.355h-1.292a.905.905,0,0,0,0-1.809H735.3a.905.905,0,1,0,0,1.809h1.292a.905.905,0,0,0,0,1.809h-1.809a.905.905,0,0,0,0,1.811h10.467a.905.905,0,1,0,0-1.811h1.821a.905.905,0,1,0,0-1.809Z" transform="translate(-600.136 -240.869)"/><path class="a" d="M454.267,267.715h-1.292a.905.905,0,1,0,0-1.809H442.5a.905.905,0,1,0,0,1.809H443.8a.905.905,0,1,0,0,1.809h-1.811a.905.905,0,0,0,0,1.811h10.469a.905.905,0,1,0,0-1.811h1.809a.905.905,0,1,0,0-1.809Z" transform="translate(-367.582 -218.122)"/></svg>