<svg xmlns="http://www.w3.org/2000/svg" xmlns:xlink="http://www.w3.org/1999/xlink" width="4339" height="1101" viewBox="0 0 4339 1101"><defs><style>.a{clip-path:url(#b);}.b{fill:#ffb8b8;}.c{fill:#3f3d56;}.d{fill:#d0cde1;}.e{fill:#d1e3ff;}.f{fill:#575a89;}.g{fill:#ff6584;}.h{fill:#2f2e41;}.i{opacity:0.15;}.j{fill:#a0616a;}.k{fill:#fff;}</style><clipPath id="b"><rect width="4339" height="1101"/></clipPath></defs><g id="a" class="a"><rect class="k" width="4339" height="1101"/><g transform="translate(677.548 -571.775)"><path class="b" d="M844.939,656.472,834,695.26h44.862c-6.408-15.323-8.046-29.874-2.492-43.26Z" transform="translate(1934.058 698.386)"/><path class="c" d="M4805.133,929.363a11.9,11.9,0,0,1-.145,1.839H32.371a11.792,11.792,0,0,1-.145-1.839c0-92.281,1068.457-167.076,2386.454-167.076S4805.133,837.082,4805.133,929.363Z" transform="translate(-834.847 764.801)"/><ellipse class="d" cx="101.125" cy="101.125" rx="101.125" ry="101.125" transform="translate(2904.714 1407.337)"/><ellipse class="e" cx="68.029" cy="27.579" rx="68.029" ry="27.579" transform="translate(2943.325 1407.337)"/><ellipse class="d" cx="64.352" cy="64.352" rx="64.352" ry="64.352" transform="translate(2950.679 1308.051)"/><ellipse class="f" cx="9.844" cy="9.844" rx="9.844" ry="9.844" transform="translate(2985.613 1340.496)"/><ellipse class="f" cx="9.844" cy="9.844" rx="9.844" ry="9.844" transform="translate(3019.246 1340.496)"/><path class="g" d="M985.714,660l-2.686,32.237a1.2,1.2,0,0,0,2.35.436L994.908,660Z" transform="translate(2023.801 703.206)"/><path class="f" d="M945.57,829.269l-11.7,11.7-64.625-76.326,1.567-10.135Z" transform="translate(2006.051 811.847)"/><path class="f" d="M909.5,778.047V785.4l-58.836-3.677-5.516-3.679Z" transform="translate(1991.538 826.023)"/><ellipse class="d" cx="16.548" cy="18.386" rx="16.548" ry="18.386" transform="translate(2930.454 1460.657)"/><path class="f" d="M1000.626,727.136l11.7,11.7,64.625-76.326-1.566-10.135Z" transform="translate(2085.17 750.342)"/><path class="f" d="M1021.87,681.652v7.354l58.836-3.677,5.516-3.677Z" transform="translate(2097.963 767.973)"/><ellipse class="d" cx="16.548" cy="18.386" rx="16.548" ry="18.386" transform="translate(3073.867 1460.657)"/><ellipse class="f" cx="7.355" cy="7.355" rx="7.355" ry="7.355" transform="translate(3004 1479.044)"/><ellipse class="f" cx="7.355" cy="7.355" rx="7.355" ry="7.355" transform="translate(3004 1502.946)"/><ellipse class="f" cx="7.355" cy="7.355" rx="7.355" ry="7.355" transform="translate(3004 1526.848)"/><path class="d" d="M1147.181,831.157a38.581,38.581,0,0,0-68.747-25.813,38.664,38.664,0,0,0-16.779-14.2,38.605,38.605,0,0,0-65.909-35.807,89.974,89.974,0,0,0-32.091-20.471,38.59,38.59,0,0,0-74.031-20.146,38.561,38.561,0,0,0-57.839,45.936,38.647,38.647,0,0,0-12.366,7.425A38.577,38.577,0,0,0,771.8,786.607a38.649,38.649,0,0,0-12.477-9.2c.114-.945.232-1.888.277-2.854a38.611,38.611,0,1,0-76.747,3.943,38.222,38.222,0,0,0-27.974,40.81c-43.328,1.272-85.117,3.3-125.051,6.047a90.1,90.1,0,0,0-165.867-18.17,38.594,38.594,0,0,0-59.326,44.591q-2.622.472-5.222.948c.062-.641.156-1.271.186-1.921a38.611,38.611,0,0,0-77.14-3.573c-.019.4.011.79,0,1.188a23.882,23.882,0,0,0-32.334,21.242C189.986,872.688,1147.111,832.658,1147.181,831.157Z" transform="translate(1546.314 721.416)"/><path class="h" d="M40.225,418.959c.053-.168.108-.338.161-.506-.023.074-.052.145-.074.218Z" transform="translate(1456.043 557.743)"/><path class="c" d="M653.195,924.931l136.183-165-135.9,182.746.284,18.566q-14.913.093-29.536-.4l6.754-238.656-.185-1.841.249-.356.646-22.552L482.549,521.028,631.51,680.56l.529,4.767,5.1-180.314-128.815-182.9L637.508,473.337,636.159,99.773l0-1.243.044,1.223,8.551,294.419,117.4-119.593L645.141,419.534,647.7,580.821l108.031-157.41L648.1,604.533l1.426,89.683,157.106-219.27L650,725.5Z" transform="translate(1722.413 561.282)"/><ellipse class="d" cx="14.709" cy="14.709" rx="14.709" ry="14.709" transform="translate(2331.061 1002.516)"/><ellipse class="d" cx="14.709" cy="14.709" rx="14.709" ry="14.709" transform="translate(2426.67 1184.081)"/><ellipse class="d" cx="14.709" cy="14.709" rx="14.709" ry="14.709" transform="translate(2301.643 1224.263)"/><ellipse class="d" cx="14.709" cy="14.709" rx="14.709" ry="14.709" transform="translate(2253.838 1038.234)"/><path class="d" d="M598.026,392.2a14.7,14.7,0,0,0-7.491-12.808A14.7,14.7,0,1,0,568.744,390.3a14.4,14.4,0,0,0,2.892,10.815,14.715,14.715,0,1,0,25.2-3.119A14.656,14.656,0,0,0,598.026,392.2Z" transform="translate(1769.808 637.354)"/><path class="d" d="M617.316,288.194A14.709,14.709,0,0,0,602.607,302.9,14.7,14.7,0,0,0,588.362,314a14.706,14.706,0,1,0,15.619,18.248,14.706,14.706,0,0,0,13.335-14.64,14.709,14.709,0,0,0,0-29.418Z" transform="translate(1778.098 616.102)"/><ellipse class="d" cx="11.032" cy="11.032" rx="11.032" ry="11.032" transform="translate(2073.653 993.645)"/><ellipse class="d" cx="11.032" cy="11.032" rx="11.032" ry="11.032" transform="translate(2193.164 1196.882)"/><ellipse class="d" cx="14.709" cy="14.709" rx="14.709" ry="14.709" transform="translate(-413.037 785.65)"/><ellipse class="d" cx="11.032" cy="11.032" rx="11.032" ry="11.032" transform="translate(-248.461 1316.582)"/><ellipse class="d" cx="14.709" cy="14.709" rx="14.709" ry="14.709" transform="translate(2599.501 1122.349)"/><ellipse class="d" cx="11.032" cy="11.032" rx="11.032" ry="11.032" transform="translate(2777.848 1142.574)"/><ellipse class="d" cx="11.032" cy="11.032" rx="11.032" ry="11.032" transform="translate(1669.154 1350.34)"/><ellipse class="d" cx="11.032" cy="11.032" rx="11.032" ry="11.032" transform="translate(2099.393 1385.273)"/><ellipse class="d" cx="14.709" cy="14.709" rx="14.709" ry="14.709" transform="translate(3268.775 1204.315)"/><ellipse class="d" cx="11.032" cy="11.032" rx="11.032" ry="11.032" transform="translate(934.895 1342.601)"/><ellipse class="d" cx="11.032" cy="11.032" rx="11.032" ry="11.032" transform="translate(662.619 893.231)"/><ellipse class="d" cx="14.709" cy="14.709" rx="14.709" ry="14.709" transform="translate(2584.792 1330.115)"/><ellipse class="d" cx="11.032" cy="11.032" rx="11.032" ry="11.032" transform="translate(2997.624 763.591)"/><ellipse class="d" cx="11.032" cy="11.032" rx="11.032" ry="11.032" transform="translate(3468.327 920.613)"/><ellipse class="d" cx="11.032" cy="11.032" rx="11.032" ry="11.032" transform="translate(1761.085 977.098)"/><ellipse class="d" cx="11.032" cy="11.032" rx="11.032" ry="11.032" transform="translate(1595.609 1188.54)"/><ellipse class="d" cx="29.418" cy="29.418" rx="29.418" ry="29.418" transform="translate(1992.753 1006.516)"/><path class="b" d="M879,651.15,895.547,634.6l9.192,9.194-14.708,23.9Z" transform="translate(2011.925 739.64)"/><path class="g" d="M915.276,678.5l11.032-7.354s27.579-36.773,38.611-18.386-20.225,36.773-20.225,36.773L935.5,700.563Z" transform="translate(1983.002 695.742)"/><path class="i" d="M915.276,678.5l11.032-7.354s27.579-36.773,38.611-18.386-20.225,36.773-20.225,36.773L935.5,700.563Z" transform="translate(1983.002 695.742)"/><path class="e" d="M821.62,665.39h58.836l34.934-23.9,20.224,27.58-47.8,36.772-49.644,9.194Z" transform="translate(1977.372 743.786)"/><path class="i" d="M821.62,665.39h58.836l34.934-23.9,20.224,27.58-47.8,36.772-49.644,9.194Z" transform="translate(1977.372 743.786)"/><path class="h" d="M885.5,753.53s53.32,58.836,44.127,73.545-29.418,14.709-33.1,12.871-57-31.257-57-31.257l7.354-23.9s-11.032-25.741,0-27.58S885.5,753.53,885.5,753.53Z" transform="translate(1937.392 759.528)"/><path class="h" d="M872.826,781.606s-34.934-27.579-42.289-22.063-31.257,40.45-27.579,57,0,22.064,11.032,20.225,12.87-20.225,12.87-20.225l38.611-14.709Z" transform="translate(1915.134 762.709)"/><rect class="i" width="1.839" height="47.946" transform="translate(2798.503 1550.614) rotate(-57.529)"/><ellipse class="b" cx="27.579" cy="27.579" rx="27.579" ry="27.579" transform="translate(2771.413 1310.809)"/><path class="e" d="M840.4,664.02s-7.354,18.386-7.354,62.514-25.741,64.352-5.516,86.415S927.481,821,927.481,821s-.86.682-.662-.7c1.839-12.87-18.386-147.09-25.741-148.929S840.4,664.02,840.4,664.02Z" transform="translate(1925.495 705.625)"/><path class="b" d="M879,632.215l16.549-16.548,9.192,9.193-14.708,23.9Z" transform="translate(2011.925 728.237)"/><path class="h" d="M831.687,647.717c-6.089.893-12.812,1.573-17.124,3.432-5.656,2.439-5.327,6.1-3.791,9.293s3.937,6.522,1.374,9.621c-1.49,1.8-4.539,3.347-6.919,5s-4.131,3.606-2.725,5.418c1.469,1.892,5.969,3.172,9.13,4.738,6.83,3.383,6.926,8.491.226,11.912,5.767-3.471,16.771-5.018,26.865-6.5s20.939-3.44,25.172-7.215c4.317-3.85.3-8.333,2.543-12.429,1.915-3.5,8.17-6.387,13.167-9.42s8.934-6.772,5.646-10.125c-2.426-2.473-8.634-4.632-7.454-7.233.73-1.609,4.148-2.809,6.6-4.151s3.823-3.348.731-4.483c-11.229,2.025-22.659,3.939-33.733,6.084C844.568,642.989,840.523,647.717,831.687,647.717Z" transform="translate(1914.787 688.499)"/><path class="e" d="M821.62,646.455h58.836l34.934-23.9,20.224,27.579-47.8,36.772L838.168,696.1Z" transform="translate(1977.372 732.384)"/><path class="e" d="M957.238,693.623s51.482-25.741,51.482-34.934-20.225-36.773-57-36.773c0,0-9.193-16.548-20.225-3.677s5.516,22.064,5.516,22.064-20.225,33.1,9.193,53.32Z" transform="translate(1990.488 675.103)"/><ellipse class="g" cx="29.418" cy="29.418" rx="29.418" ry="29.418" transform="translate(2467.12 1097.686)"/><path class="f" d="M623.87,430l-8.419-11.243,1.472-1.1,7.242,9.669,12.723-10.9,12.822,10.99,11.079-11.079,11.682,11.682-1.3,1.3-10.383-10.382L649.806,429.91l-12.919-11.073Z" transform="translate(1853.215 699.109)"/><path class="f" d="M622.7,438.944,614.362,427.8l1.284-.96,7.316,9.772L635.7,425.691l12.829,11L659.6,425.612l11.6,11.6-1.134,1.133L659.6,427.878l-10.988,10.991L635.7,427.8Z" transform="translate(1852.561 701.942)"/><rect class="f" width="1.839" height="22.064" transform="translate(2494.699 1084.333)"/><ellipse class="g" cx="29.418" cy="29.418" rx="29.418" ry="29.418" transform="translate(2411.961 904.077)"/><path class="f" d="M589.443,279.667l-8.42-11.244,1.473-1.1,7.242,9.671,12.724-10.9,12.822,10.991L626.362,266l11.682,11.682-1.3,1.3L626.362,268.6l-10.983,10.983-12.918-11.073Z" transform="translate(1832.483 653.789)"/><path class="f" d="M588.278,288.611l-8.343-11.142,1.283-.961,7.316,9.773,12.744-10.922,12.827,11,11.073-11.073,11.6,11.6-1.133,1.133-10.467-10.465L614.19,288.539l-12.912-11.07Z" transform="translate(1831.828 656.608)"/><rect class="f" width="1.839" height="22.064" transform="translate(2439.541 889.048)"/><ellipse class="g" cx="29.418" cy="29.418" rx="29.418" ry="29.418" transform="translate(2185.809 1105.075)"/><path class="f" d="M448.293,435.735l-8.42-11.244,1.472-1.1,7.242,9.671,12.723-10.9,12.821,10.991,11.081-11.081,11.682,11.683-1.3,1.3-10.382-10.382-10.983,10.983L461.31,424.576Z" transform="translate(1747.482 700.838)"/><path class="f" d="M447.128,444.68l-8.343-11.142,1.283-.961,7.316,9.772,12.742-10.921,12.829,11L484.03,431.35l11.6,11.6-1.133,1.133L484.03,433.617l-10.99,10.988-12.914-11.066Z" transform="translate(1746.827 703.673)"/><rect class="f" width="1.839" height="22.064" transform="translate(2213.388 1091.786)"/><path class="d" d="M1148.3,819.716a38.581,38.581,0,0,0-68.747-25.813,38.668,38.668,0,0,0-16.779-14.2A38.605,38.605,0,0,0,996.864,743.9a89.981,89.981,0,0,0-32.09-20.471,38.59,38.59,0,0,0-74.031-20.145A38.561,38.561,0,0,0,832.9,749.216a38.639,38.639,0,0,0-12.366,7.426,38.576,38.576,0,0,0-47.624,18.524,38.638,38.638,0,0,0-12.477-9.2c.114-.945.232-1.889.277-2.855a38.611,38.611,0,1,0-76.747,3.943,38.223,38.223,0,0,0-27.974,40.81c-43.328,1.272-85.117,3.3-125.051,6.047a90.1,90.1,0,0,0-165.867-18.171,38.594,38.594,0,0,0-59.326,44.592q-2.622.471-5.222.948c.062-.641.156-1.271.186-1.921a38.611,38.611,0,1,0-77.14-3.573c-.019.4.011.791,0,1.189a23.882,23.882,0,0,0-32.334,21.242C191.1,861.247,1148.229,821.217,1148.3,819.716Z" transform="translate(1546.987 714.526)"/><path class="d" d="M206.643,867.455a41.787,41.787,0,0,1,4.339.441H198.829a36.641,36.641,0,0,1,7.814-.441Z" transform="translate(1551.555 828.106)"/><path class="d" d="M495.673,829.91H346.119a90.061,90.061,0,0,1,149.554,0Z" transform="translate(1640.254 781.516)"/><ellipse class="j" cx="32.759" cy="32.759" rx="32.759" ry="32.759" transform="translate(1860.105 1097.191)"/><path class="h" d="M306.081,488.385c11.672.731,22.5,6.144,32.622,12a4.224,4.224,0,0,0-5.1,1.006c-1.35,1.309-2.2,3.058-3.5,4.417-2.416,2.527-6.039,3.4-9.451,4.161l-15.9,3.539L290,516.792a29.99,29.99,0,0,1-11.3,1.038c-3.754-.619-7.471-3.041-8.452-6.717-1.363-5.107,8.791-12.709,12.515-15.784A33.811,33.811,0,0,1,306.081,488.385Z" transform="translate(1594.49 599.793)"/><path class="h" d="M276.248,513.1c6.876-9.655,17.607-15.933,28.372-21.347-1.811.717-2.271,3.063-1.786,4.97s1.642,3.629,2.2,5.52c1.039,3.515-.083,7.136-1.2,10.51l-5.2,15.725-4.824,14.584a28.606,28.606,0,0,1-5.05,10.334,10.5,10.5,0,0,1-10.667,3.487c-5.419-1.716-7.009-14.782-7.856-19.736A32.812,32.812,0,0,1,276.248,513.1Z" transform="translate(1594.358 601.884)"/><path class="j" d="M376.757,514.015s1.927-42.394,11.562-40.467,1.927,44.321,1.927,44.321Z" transform="translate(1658.704 590.883)"/><path class="f" d="M408.874,574.908l-43.3,31.357-12.593,9.114-32.754-46.254,20.444-8.059,43.147-16.994,25.053-50.105,21.187,5.784C433.927,509.385,408.874,574.908,408.874,574.908Z" transform="translate(1624.664 603.218)"/><path class="j" d="M334,510.23s-5.781-50.1,5.781-46.248,9.635,52.029,9.635,52.029Z" transform="translate(1632.087 585.033)"/><path class="f" d="M251.175,740.918,240.056,770l30.975,9.163-.59-38.535Z" transform="translate(1627.151 803.487)"/><path class="h" d="M341.215,620.1,310.4,747.768l-29.591,81.4-38.536.59,35.018-104.606,13.648-115.841Z" transform="translate(1628.488 724.406)"/><path class="h" d="M271.514,793.689s-11.732,24.972-3.821,28.391,29.4,8.011,29.4,8.011l2.95-2.48s49.642,11.128,57.955-5.933-30.7-24.536-30.7-24.536l-17.832-15.218-21.419,10.458Z" transform="translate(1591.375 776.626)"/><path class="f" d="M225.865,737.7l-11.118,29.079,30.975,9.163-.59-38.536Z" transform="translate(1611.91 801.547)"/><path class="h" d="M263.481,611.51,252.107,724.438l-35.194,93.045,32.932,11.058,50.521-99.059,23.309-114.063Z" transform="translate(1613.214 725.733)"/><path class="h" d="M247.405,786.873s-18.386,20.571-11.784,26.111S261.5,829.07,261.5,829.07l3.536-1.533s44.383,24.866,57.23,10.9-22.4-32.3-22.4-32.3l-12.733-19.684-23.516,3.893Z" transform="translate(1572.85 779.356)"/><path class="i" d="M365.579,578.625l-12.593,9.114-32.754-46.254,9.114-1.621c.505.833,8.4.624,8.921,1.487C347.826,557.007,361.609,570.24,365.579,578.625Z" transform="translate(1624.664 630.857)"/><path class="f" d="M431.519,744.19c-2.231-1.443-2.75-16.524-5.947-17.841-1.622-.669-5.592,12.381-7.433,11.744C370.36,721.561,263.556,757,245.669,717.428c-12.026-26.605,64.349-78.191,64.349-97.46a56.614,56.614,0,0,0-2.646-14.437c-3.643-12.757-10.422-28.814-15.894-40.932-4.683-10.378-8.43-17.856-8.43-17.856s56.186-16.7,74.191-23.15a51.729,51.729,0,0,0,4.817-1.9c3.449-1.725,12.311,10.467,21.395,25.32,11.181,18.3,22.718,40.664,24.845,45.986C412.146,602.632,464.273,765.392,431.519,744.19Z" transform="translate(1578.989 619.815)"/><path class="i" d="M358.807,543.493c-20.86,25.112-43.31,55.13-62.639,60.81a32.119,32.119,0,0,1-6.5,1.249c-3.643-12.757-10.422-28.814-15.894-40.932a26.287,26.287,0,0,1,7.865-5.9L333.9,533l5.635-9.382c2.29-.818,3.955-1.472,4.817-1.9C347.8,519.987,349.723,528.64,358.807,543.493Z" transform="translate(1596.689 619.794)"/><path class="f" d="M284.271,570.757C270,577.783,264.8,596.045,274.043,608.991c4.8,6.718,12.477,10.964,24.761,7.351,32.759-9.635,94.423-79.007,94.423-100.2v-19.27L370.1,489.16,336.531,545.03Z" transform="translate(1594.059 600.323)"/><ellipse class="h" cx="2.974" cy="5.947" rx="2.974" ry="5.947" transform="matrix(0.814, -0.581, 0.581, 0.814, 1955.568, 1172.067)"/><ellipse class="h" cx="2.974" cy="5.947" rx="2.974" ry="5.947" transform="matrix(0.814, -0.581, 0.581, 0.814, 1964.489, 1188.421)"/><ellipse class="h" cx="2.974" cy="5.947" rx="2.974" ry="5.947" transform="matrix(0.814, -0.581, 0.581, 0.814, 1971.923, 1206.263)"/><ellipse class="h" cx="2.974" cy="5.947" rx="2.974" ry="5.947" transform="translate(1977.524 1222.547) rotate(-18.867)"/><ellipse class="h" cx="2.974" cy="5.947" rx="2.974" ry="5.947" transform="translate(1983.471 1240.389) rotate(-18.867)"/><ellipse class="h" cx="2.974" cy="5.947" rx="2.974" ry="5.947" transform="translate(1989.418 1256.743) rotate(-18.867)"/><ellipse class="h" cx="2.974" cy="5.947" rx="2.974" ry="5.947" transform="translate(1992.392 1274.585) rotate(-18.867)"/><ellipse class="h" cx="2.974" cy="5.947" rx="2.974" ry="5.947" transform="translate(1995.365 1292.426) rotate(-18.867)"/><ellipse class="h" cx="2.974" cy="5.947" rx="2.974" ry="5.947" transform="translate(1998.339 1311.754) rotate(-18.867)"/><ellipse class="h" cx="2.974" cy="5.947" rx="2.974" ry="5.947" transform="translate(1999.826 1331.083) rotate(-18.867)"/><path class="e" d="M300.794,557.378s44.016-51.312,39.83-61.265-38.642-30.6-78.454-13.858c0,0-17.488-13.729-23.571,5.228s16.019,21.376,16.019,21.376S247.79,553.9,288.85,562.4Z" transform="translate(1574.866 592.352)"/><ellipse class="g" cx="29.418" cy="29.418" rx="29.418" ry="29.418" transform="translate(2559.051 1526.848)"/><path class="f" d="M681.248,753.61l-8.42-11.244,1.472-1.1,7.242,9.671,12.723-10.9,12.823,10.991,11.079-11.081,11.682,11.682-1.3,1.3L718.167,742.54l-10.983,10.983-12.919-11.072Z" transform="translate(1887.768 803.075)"/><path class="f" d="M680.083,762.555l-8.343-11.143,1.284-.961,7.315,9.773L693.081,749.3l12.829,11,11.075-11.075,11.6,11.6-1.133,1.133-10.464-10.464L706,762.48l-12.914-11.067Z" transform="translate(1887.113 808.666)"/><rect class="f" width="1.839" height="22.064" transform="translate(2586.63 1505.704)"/><ellipse class="e" cx="29.418" cy="29.418" rx="29.418" ry="29.418" transform="translate(2460.649 1525.813)"/><path class="f" d="M622.646,763.661l-12.447-6.51.852-1.63,10.706,5.6L628.53,745.8l16.311,4.382,5.214-14.777,15.58,5.5-.611,1.734-13.846-4.885-5.169,14.647-16.432-4.416Z" transform="translate(1850.053 800.341)"/><path class="f" d="M624.751,770.631l-11.578-4.941.628-1.474,10.233,4.369,7.487-13.9L647.14,757.6l5.919-13.281,14.663,3.89-.409,1.549-13.348-3.539L648.089,759.4l-15.71-2.929Z" transform="translate(1851.844 805.71)"/><rect class="f" width="1.839" height="22.064" transform="matrix(0.902, -0.431, 0.431, 0.902, 2466.595, 1510.413)"/><ellipse class="e" cx="29.418" cy="29.418" rx="29.418" ry="29.418" transform="translate(2196.386 1509.245)"/><path class="f" d="M453.913,738.675l-4.2-13.4,1.754-.55,3.611,11.528,15.626-6.048,8.434,14.631,14.135-6.761,7.13,14.9-1.66.793-6.335-13.245-14.011,6.7-8.5-14.74Z" transform="translate(1753.409 793.91)"/><path class="f" d="M494.673,761.98l-6.386-13.351-14.021,6.7L465.773,740.6l-15.966,6.18L445.649,733.5l1.529-.479,3.647,11.651,15.652-6.058,8.437,14.638,14.128-6.756,7.077,14.8Z" transform="translate(1750.96 798.905)"/><rect class="f" width="22.064" height="1.839" transform="translate(2233.547 1511.173) rotate(-70.562)"/><ellipse class="f" cx="2.735" cy="9.193" rx="2.735" ry="9.193" transform="translate(2842.625 1464.739) rotate(-9.004)"/><ellipse class="f" cx="2.735" cy="9.193" rx="2.735" ry="9.193" transform="translate(2838.948 1438.998) rotate(-9.004)"/><ellipse class="f" cx="2.735" cy="9.193" rx="2.735" ry="9.193" transform="translate(2846.302 1488.641) rotate(-9.004)"/><ellipse class="f" cx="2.735" cy="9.193" rx="2.735" ry="9.193" transform="translate(2848.71 1510.455) rotate(-5.343)"/><ellipse class="f" cx="9.193" cy="2.735" rx="9.193" ry="2.735" transform="translate(2884.302 1378.667) rotate(-45)"/><path class="h" d="M886.779,642.491c-3.886-.441-7.209,2.591-9.935,5.4a60.17,60.17,0,0,1-7.45,6.847,30.6,30.6,0,0,1-27.994,3.981c.23.084,8.894-11.39,9.849-12.445a120.5,120.5,0,0,1,11.617-11.225c3.083-2.6,7.325-7.063,11.737-5.13C879.247,631.948,883.48,638.754,886.779,642.491Z" transform="translate(1938.515 684.802)"/><path class="f" d="M847.194,682.721s51.482-25.741,51.482-34.934-20.225-36.773-57-36.773c0,0-9.193-16.548-20.225-3.677s5.516,22.064,5.516,22.064-20.225,33.1,9.193,53.32Z" transform="translate(1924.219 668.538)"/><path class="f" d="M892.992,641.3c-3.886-.441-7.208,2.591-9.935,5.4a60.166,60.166,0,0,1-7.45,6.848,30.6,30.6,0,0,1-27.994,3.981c.23.084,8.893-11.39,9.848-12.445a120.52,120.52,0,0,1,11.617-11.225c3.083-2.6,7.325-7.062,11.737-5.13C885.461,630.759,889.693,637.565,892.992,641.3Z" transform="translate(1942.256 684.086)"/><path class="g" d="M964.919,633.824c-5.854-9.758-16.369-3.98-24.95,3.592-.418-4.712-1.847-8.188-3.549-8.188-2.031,0-3.677,4.939-3.677,11.032a31.222,31.222,0,0,0,.256,4.029c-4.016,4.356-6.691,7.922-6.691,7.922l-11.032,7.354L935.5,681.628l9.193-11.032S975.95,652.21,964.919,633.824Z" transform="translate(1983.003 684.34)"/><ellipse class="f" cx="7.355" cy="7.355" rx="7.355" ry="7.355" transform="translate(2735.56 1263.924)"/><path class="e" d="M845,729v12.016a16.823,16.823,0,1,0,33.646,0V729Z" transform="translate(1940.682 744.756)"/><path class="i" d="M845,729v12.016a16.823,16.823,0,1,0,33.646,0V729Z" transform="translate(1940.682 744.756)"/></g></g></svg>